<svg viewBox="0 0 580 129" xmlns="http://www.w3.org/2000/svg"><g fill="#ea593e"><path d="m111.42 101.62h29.58l-11-11v-65.1h-29.6l11 11v47.12a24.56 24.56 0 0 1 -7.59 6.82 18.23 18.23 0 0 1 -9 2.33c-5 0-8.44-1.68-10.64-4.31-2.36-2.81-3-7.68-3-15.22v-47.74h-29.58l11 11v42q0 11.77 6 18.29t17.21 6.51a29.31 29.31 0 0 0 14.33-3.8 30.66 30.66 0 0 0 11.24-10.62z"/><path d="m300.84 34.2q-9.3-10.38-24.34-10.39-18.9 0-30.61 12.56t-11.7 30.69q0 15.66 9.3 26t24.33 10.38q18.92 0 30.62-12.55t11.7-30.69q0-15.62-9.3-26zm-13.95 56.65q-3.88 6.74-10.54 6.74-9.77 0-16.12-12.79t-6.35-31.8q0-11.93 3.56-17.59t10.7-5.66q9.76 0 16.19 12.87t6.43 31.77q0 9.71-3.87 16.46z"/><path d="m171.05 38.23v-12.71h-29.6l11 11v65.1h29.61l-11-11v-47.12a24.59 24.59 0 0 1 7.6-6.82 18.2 18.2 0 0 1 9-2.33c5 0 8.43 1.68 10.64 4.31 2.35 2.81 3 7.68 3 15.22v47.74h29.6l-11-11v-42q0-11.78-6-18.29t-17.2-6.51a29.38 29.38 0 0 0 -14.34 3.8 30.66 30.66 0 0 0 -11.31 10.61z"/><path d="m10.58 0 12.5 12.5v90.83c0 4.6-.15 6.92-.69 8.44h-22.39v17.23h15.33s20-19.69 22.78-23.5a15.12 15.12 0 0 0 3.25-10v-95.5z"/><path d="m368.17 27.8v10.45h14.32v3.31h-14.32v13.2h-3.7v-30.36h19.78v3.4z"/><path d="m396.21 32.57c6.58 0 11.05 4.65 11.05 11.36s-4.47 11.26-11.05 11.26-11-4.6-11-11.26 4.42-11.36 11-11.36zm0 19.57c4.43 0 7.39-3.27 7.39-8.26s-3-8.3-7.39-8.3-7.4 3.23-7.4 8.3 2.97 8.26 7.4 8.26z"/><path d="m423.3 33v3.27h-2.88c-3.75 0-5.42 2.45-5.42 6.49v12h-3.53v-21.76h3.1l.47 3.1a6.19 6.19 0 0 1 5.5-3.1z"/><path d="m457.91 41v13.76h-3.57v-13.11c0-4.13-2-5.81-5-5.81s-5.34 1.94-5.49 6.16v12.76h-3.48v-12.76c0-4-1.85-6.11-5-6.11-3.44 0-5.5 2.24-5.5 5.94v13h-3.53v-21.83h3.1l.51 2.54a6.62 6.62 0 0 1 6-3c3.27 0 5.85 1.42 7.09 4.22a7.44 7.44 0 0 1 7-4.22c4.73.03 7.87 3.22 7.87 8.46z"/><path d="m483.15 44.87h-17.46c.09 4.82 3.23 7.31 7.14 7.31a6.5 6.5 0 0 0 6.45-4.26h3.61c-1.24 4.35-5 7.23-10.14 7.23-6.41 0-10.67-4.52-10.67-11.31s4.26-11.27 10.62-11.27 10.45 4.3 10.45 10.75zm-17.41-2.62h13.8c-.26-4.52-3.18-6.8-6.84-6.8s-6.53 2.24-6.96 6.8z"/><path d="m499.23 33v3.27h-2.88c-3.74 0-5.42 2.45-5.42 6.49v12h-3.52v-21.76h3.09l.48 3.1a6.18 6.18 0 0 1 5.5-3.1z"/><path d="m505.81 54.76h-3.52v-31.65h3.52z"/><path d="m519.27 52.4 6.58-19.4h3.74l-9.12 25.29c-1.54 4.21-3.91 5.07-7.09 5.07h-4.3v-3.18h4.34c2.24 0 3.62-1.2 3.62-3.66a5.28 5.28 0 0 0 -.39-1.89l-8.34-21.63h3.82z"/><path d="m368.17 88.09v13.67h-3.7v-30.36h3.7v13.25h16.56v-13.25h3.65v30.36h-3.65v-13.67z"/><path d="m413.71 99v2.75h-2.15c-1.72 0-3.31-.69-3.53-3-1.29 2-4.13 3.4-7.61 3.4-4.86 0-7.87-2.54-7.87-6.66 0-3.49 2.15-6.28 8.34-6.28h6.88v-1.21c0-3.91-2.27-5.54-5.5-5.54s-5.37 1.59-5.55 4.17h-3.39c.25-4.6 4-7.1 9.07-7.1 5.42 0 8.94 3 8.94 8.43v9.33c0 1.38.35 1.68 1.59 1.68zm-5.94-7.14h-6.53c-3.74 0-5 1.55-5 3.61 0 2.54 2 3.79 4.81 3.79 3.57 0 6.75-2 6.75-6.41z"/><path d="m426.61 82.63c-4 0-7.05 2.83-7.05 8.21s3.05 8.21 7 8.21a6.66 6.66 0 0 0 6.5-4.9h3.74a10.12 10.12 0 0 1 -10.24 8c-6.36 0-10.62-4.52-10.62-11.31s4.26-11.27 10.62-11.27c5.12 0 8.95 2.84 10.2 7.7h-3.87a6.51 6.51 0 0 0 -6.28-4.64z"/><path d="m440.45 70.11h3.55v20.56l10.51-10.67h4.49l-9.42 9.51 9.42 12.25h-4.4l-7.52-9.76-3.06 3v6.71h-3.57z"/><path d="m480.83 91.87h-17.46c.09 4.82 3.23 7.31 7.14 7.31a6.52 6.52 0 0 0 6.49-4.26h3.61c-1.24 4.35-5 7.23-10.15 7.23-6.4 0-10.66-4.52-10.66-11.31s4.2-11.27 10.58-11.27 10.45 4.3 10.45 10.75zm-17.41-2.62h13.8c-.26-4.52-3.18-6.8-6.84-6.8s-6.53 2.24-6.96 6.8z"/><path d="m496.91 80v3.27h-2.91c-3.74 0-5.42 2.45-5.42 6.49v12h-3.52v-21.76h3.09l.48 3.1a6.18 6.18 0 0 1 5.5-3.1z"/><path d="m495.43 71.4h4.47l8.69 16.09 8.72-16.09h4.39l-11.35 20v10.36h-3.66v-10.36z"/><path d="m531.16 79.57c6.58 0 11.05 4.65 11.05 11.36s-4.47 11.26-11.05 11.26-11-4.6-11-11.26 4.42-11.36 11-11.36zm0 19.57c4.43 0 7.4-3.27 7.4-8.26s-3-8.3-7.4-8.3-7.4 3.23-7.4 8.3 2.97 8.26 7.4 8.26z"/><path d="m564.74 80v21.76h-3l-.34-3.22a7.25 7.25 0 0 1 -6.71 3.65c-5.29 0-8.47-3.61-8.47-9.16v-13.03h3.44v12.47c0 4.43 2.36 6.54 5.72 6.5 3.91 0 6-2.88 6-7.06v-11.91z"/></g></svg>